<?xml version="1.0" encoding="UTF-8" standalone="no"?>
<!-- Created with Inkscape (http://www.inkscape.org/) -->

<svg
   xmlns:dc="http://purl.org/dc/elements/1.1/"
   xmlns:cc="http://creativecommons.org/ns#"
   xmlns:rdf="http://www.w3.org/1999/02/22-rdf-syntax-ns#"
   xmlns:svg="http://www.w3.org/2000/svg"
   xmlns="http://www.w3.org/2000/svg"
   xmlns:sodipodi="http://sodipodi.sourceforge.net/DTD/sodipodi-0.dtd"
   xmlns:inkscape="http://www.inkscape.org/namespaces/inkscape"
   width="64"
   height="64"
   viewBox="0 0 16.933333 16.933333"
   version="1.1"
   id="svg8"
   inkscape:version="0.92.3 (2405546, 2018-03-11)"
   sodipodi:docname="20-Update system.svg">
  <defs
     id="defs2" />
  <sodipodi:namedview
     id="base"
     pagecolor="#ffffff"
     bordercolor="#666666"
     borderopacity="1.0"
     inkscape:pageopacity="0.0"
     inkscape:pageshadow="2"
     inkscape:zoom="8"
     inkscape:cx="35.615549"
     inkscape:cy="16.520664"
     inkscape:document-units="px"
     inkscape:current-layer="layer2"
     showgrid="false"
     inkscape:snap-smooth-nodes="true"
     inkscape:snap-page="true"
     inkscape:snap-midpoints="false"
     inkscape:snap-intersection-paths="true"
     inkscape:object-paths="true"
     inkscape:object-nodes="true"
     units="px"
     inkscape:snap-bbox="true"
     inkscape:bbox-paths="false"
     inkscape:snap-bbox-midpoints="false"
     inkscape:window-width="1920"
     inkscape:window-height="1040"
     inkscape:window-x="0"
     inkscape:window-y="0"
     inkscape:window-maximized="1"
     inkscape:snap-grids="true"
     inkscape:snap-to-guides="false"
     inkscape:snap-bbox-edge-midpoints="false"
     inkscape:snap-nodes="true"
     inkscape:snap-others="false"
     inkscape:bbox-nodes="true"
     showguides="true"
     inkscape:guide-bbox="true"
     inkscape:measure-start="0,0"
     inkscape:measure-end="0,0"
     inkscape:snap-global="true">
    <inkscape:grid
       type="xygrid"
       id="grid815"
       enabled="true" />
  </sodipodi:namedview>
  <metadata
     id="metadata5">
    <rdf:RDF>
      <cc:Work
         rdf:about="">
        <dc:format>image/svg+xml</dc:format>
        <dc:type
           rdf:resource="http://purl.org/dc/dcmitype/StillImage" />
        <dc:title />
      </cc:Work>
    </rdf:RDF>
  </metadata>
  <g
     inkscape:groupmode="layer"
     id="layer2"
     inkscape:label="20-Update system">
    <path
       inkscape:connector-curvature="0"
       id="Icon_23"
       style="color:#000000;font-style:normal;font-variant:normal;font-weight:normal;font-stretch:normal;font-size:medium;line-height:normal;font-family:sans-serif;font-variant-ligatures:normal;font-variant-position:normal;font-variant-caps:normal;font-variant-numeric:normal;font-variant-alternates:normal;font-feature-settings:normal;text-indent:0;text-align:start;text-decoration:none;text-decoration-line:none;text-decoration-style:solid;text-decoration-color:#000000;letter-spacing:normal;word-spacing:normal;text-transform:none;writing-mode:lr-tb;direction:ltr;text-orientation:mixed;dominant-baseline:auto;baseline-shift:baseline;text-anchor:start;white-space:normal;shape-padding:0;clip-rule:nonzero;display:inline;overflow:visible;visibility:visible;isolation:auto;mix-blend-mode:normal;color-interpolation:sRGB;color-interpolation-filters:linearRGB;solid-color:#000000;solid-opacity:1;vector-effect:none;fill:#000000;fill-opacity:1;fill-rule:nonzero;stroke:none;stroke-width:0.99999994;stroke-linecap:round;stroke-linejoin:round;stroke-miterlimit:4;stroke-dasharray:none;stroke-dashoffset:0;stroke-opacity:1;color-rendering:auto;image-rendering:auto;shape-rendering:auto;text-rendering:auto;enable-background:accumulate"
       d="m 6.3494865,0.52921107 c -0.43516,0 -0.79272,0.35808002 -0.79272,0.79323993 v 1.05833 c 0,0.20332 0.0801,0.38829 0.20774,0.52968 -0.12773,0.14097 -0.20774,0.32574 -0.20774,0.5291699 V 4.497961 c 0,0.43517 0.35755,0.7932399 0.79272,0.7932399 h 4.2343595 c 0.43517,0 0.79324,-0.3580699 0.79324,-0.7932399 V 3.4396309 c 0,-0.2034299 -0.0805,-0.3881999 -0.20826,-0.5291699 0.12762,-0.14139 0.20826,-0.32636 0.20826,-0.52968 v -1.05833 c 0,-0.43515991 -0.35808,-0.79323993 -0.79324,-0.79323993 z m 0,0.52968993 h 1.3244599 v 1.5875 H 6.3494865 c -0.1511599,0 -0.2635499,-0.11446 -0.2635499,-0.26562 v -1.05833 c 0,-0.15116 0.11239,-0.26355 0.2635499,-0.26355 z m 1.8515599,0 h 2.3827996 c 0.15116,0 0.26355,0.11239 0.26355,0.26355 v 1.05833 c 0,0.15116 -0.11239,0.26562 -0.26355,0.26562 H 8.2010464 Z m -1.32188,0.52865 c -0.1461299,0 -0.2645799,0.11846 -0.2645799,0.26458 0,0.14613 0.11845,0.26458 0.2645799,0.26458 0.1461302,0 0.2645802,-0.11845 0.2645802,-0.26458 0,-0.14612 -0.11845,-0.26458 -0.2645802,-0.26458 z m 2.11718,5.106e-4 c -0.14632,-8.493e-4 -0.26556,0.11723 -0.2661299,0.26355 -5.821e-4,0.14714 0.1189999,0.26648 0.2661299,0.26562 h 1.0702196 c 0.14694,5.794e-4 0.26619,-0.1186806 0.26562,-0.2656206 -5.8e-4,-0.14612 -0.11949,-0.26412 -0.26562,-0.26355 z M 4.6110867,2.716691 C 2.6326168,3.9867008 1.3223968,6.2068608 1.3223968,8.7302709 c 0,0.7715797 0.12254,1.5165311 0.3493399,2.2133111 0.0451,0.13952 0.19504,0.21578 0.33434,0.17001 0.13932,-0.0453 0.21531,-0.19519 0.1695,-0.33434 C 1.9657168,10.134481 1.8515668,9.4458608 1.8515668,8.7302709 c 0,-2.3402801 1.2147799,-4.3921 3.0468399,-5.5681299 0.1222399,-0.0795 0.15713,-0.24287 0.078,-0.36535 -0.0472,-0.0745 -0.12836,-0.12065 -0.2165051,-0.122995 -0.052785,-8.85e-4 -0.1045951,0.014095 -0.1488149,0.042895 z m 7.3437593,0.08002 c -0.0787,0.12302 -0.0429,0.28655 0.0801,0.36535 1.83205,1.1760399 3.04736,3.2278698 3.04736,5.5681398 0,0.7155799 -0.11467,1.4042102 -0.32453,2.0489712 -0.0458,0.1393 0.0305,0.28926 0.17001,0.33434 0.13915,0.0454 0.28874,-0.0308 0.33383,-0.17001 0.2268,-0.696781 0.34985,-1.4417312 0.34985,-2.2133012 0,-2.5233899 -1.31282,-4.7435697 -3.29127,-6.0135898 -0.044,-0.0283 -0.0955,-0.0428 -0.1558,-0.04136 -0.09041,0.00754 -0.16494,0.05194 -0.20955,0.12146 z M 6.3494865,3.1760509 H 7.6739464 V 4.761481 H 6.3494865 c -0.1511599,0 -0.2635499,-0.11239 -0.2635499,-0.2635501 V 3.439601 c 0,-0.1511602 0.11239,-0.2635501 0.2635499,-0.2635501 z m 1.8515599,0 h 2.3827996 c 0.15116,0 0.26355,0.1123899 0.26355,0.2635501 v 1.0583299 c 0,0.1511601 -0.11239,0.2635501 -0.26355,0.2635501 H 8.2010464 Z m -1.32188,0.52813 c -0.1461299,0 -0.2645799,0.11846 -0.2645799,0.2645899 0,0.1461201 0.11845,0.2645802 0.2645799,0.2645802 0.1461302,0 0.2645802,-0.1184601 0.2645802,-0.2645802 0,-0.1461299 -0.11845,-0.2645899 -0.2645802,-0.2645899 z m 2.11718,0.00101 c -0.14632,-8.513e-4 -0.26556,0.1172153 -0.2661299,0.2635453 5.821e-4,0.1463299 0.1198099,0.26441 0.2661299,0.2635501 h 1.0702196 c 0.14613,5.821e-4 0.26505,-0.11742 0.26562,-0.2635501 -5.82e-4,-0.1461199 -0.11949,-0.2641201 -0.26562,-0.2635499 z m -4.3340498,1.32585 -1.0996699,0.2248 c -0.1427999,0.0288 -0.23543,0.1676501 -0.2072198,0.3105701 0.029,0.14356 0.1691698,0.23622 0.3126398,0.2067099 l 0.47439,-0.0961 -0.0858,0.1297102 c -1.01614,1.53329 -1.1636,3.4862398 -0.3886001,5.1542009 0.0615,0.13258 0.21883,0.1902 0.3514,0.12868 0.13278,-0.06131 0.1906399,-0.2187 0.1291899,-0.35141 C 3.4508467,9.2364008 3.5830066,7.4797908 4.4979567,6.0992008 l 0.0842,-0.12764 0.0956,0.4717999 c 0.029,0.14356 0.1691798,0.23622 0.3126499,0.2067103 0.1433099,-0.029 0.23589,-0.1688402 0.2066999,-0.31213 L 4.9759365,5.2460209 C 4.9560375,5.140771 4.8965365,5.099741 4.8678966,5.0744508 c -0.0427,-0.0302 -0.0934,-0.0471 -0.145715,-0.048505 -0.021186,-0.00191 -0.040585,0.0041 -0.059885,0.0051 z m 7.3338694,0.1133 c -0.10839,0.0991 -0.11535,0.26748 -0.0155,0.3751699 1.043919,1.1425399 1.46777,2.7203199 1.13636,4.2322997 l -0.0336,0.15193 -0.26096,-0.4077298 c -0.0473,-0.0747 -0.1287,-0.1208101 -0.21704,-0.12299 -0.0526,-7.673e-4 -0.10424,0.0142 -0.14831,0.0429 -0.12296,0.0788 -0.15881,0.2423298 -0.0801,0.3653498 l 0.59479,0.9286215 c 0.0521,0.0945 0.12327,0.11509 0.16175,0.12816 0.0751,0.0249 0.16394,7.41e-4 0.21394,-0.0315 l 0.94567,-0.605645 c 0.122641,-0.0788 0.15846,-0.2419315 0.0801,-0.3648415 -0.0788,-0.122959 -0.24233,-0.158809 -0.36535,-0.0801 l -0.40876,0.2614815 0.0336,-0.1524415 c 0.36809,-1.6793847 -0.10187,-3.4339847 -1.26142,-4.7030747 -0.0493,-0.0538 -0.11872,-0.0849 -0.19172,-0.085795 -0.0676,-0.002 -0.13327,0.022905 -0.18345,0.068205 z M 8.0449864,5.8202763 c -0.1314198,-9.03e-5 -0.2429899,0.0963 -0.2619999,0.2263399 l -0.0729,0.4712898 c -0.1520699,0.0467 -0.32413,0.1174401 -0.46509,0.1912001 L 6.8651766,6.425926 c -0.1050999,-0.0775 -0.2510502,-0.0668 -0.3436501,0.0253 L 5.9236266,7.0486057 c -0.0933,0.0929 -0.10404,0.24022 -0.025299,0.3457099 l 0.2821598,0.38189 c -0.0828,0.14835 -0.1460899,0.3126798 -0.1932699,0.4640599 l -0.4697399,0.0703 c -0.1298501,0.019 -0.2261701,0.1302501 -0.22635,0.26148 v 0.8459399 c 1.799e-4,0.1312301 0.0965,0.2425101 0.22635,0.2614801 l 0.4702498,0.0708 c 0.0468,0.15216 0.11631,0.3251005 0.19017,0.4661205 l -0.2816303,0.381381 c -0.0774,0.10522 -0.0664,0.25117 0.0258,0.34364 l 0.59738,0.59738 c 0.0928,0.0934 0.2400998,0.10443 0.3457199,0.0258 l 0.38241,-0.28215 c 0.1412301,0.0745 0.3115299,0.14487 0.46405,0.19224 l 0.0698,0.47077 c 0.019899,0.12903 0.1309299,0.22426 0.2614901,0.22427 h 0.8459393 c 0.13055,-10e-6 0.2415801,-0.0953 0.261481,-0.22427 l 0.0718,-0.47232 c 0.15418,-0.0437 0.32362,-0.11745 0.46457,-0.19121 l 0.3813696,0.28267 c 0.10533,0.0777 0.25162,0.0667 0.34417,-0.0258 l 0.59738,-0.59738 c 0.0921,-0.0926 0.10284,-0.23854 0.0253,-0.34364 l -0.28215,-0.385511 c 0.08,-0.14093 0.14537,-0.3103205 0.19275,-0.4625005 l 0.47026,-0.0703 c 0.13005,-0.0188 0.22665,-0.1300902 0.22685,-0.2614902 V 8.5720254 c -2e-4,-0.1314 -0.0968,-0.2427298 -0.22685,-0.2614797 l -0.472331,-0.070305 c -0.0467,-0.1513001 -0.11168,-0.32097 -0.18965,-0.46405 l 0.28112,-0.3818901 c 0.0787,-0.1054999 0.0679,-0.2528199 -0.0253,-0.3457199 L 10.412247,6.4512009 c -0.0927,-0.0924 -0.23896,-0.1031402 -0.34417,-0.0253 L 9.6846464,6.7101213 c -0.1407589,-0.0744 -0.30085,-0.1474099 -0.463539,-0.1922399 l -0.0708,-0.47128 c -0.019,-0.1298501 -0.130251,-0.2261799 -0.26148,-0.22635 z m 0.2284101,0.5291698 h 0.3865401 l 0.0625,0.4159901 c 0.0161,0.1079198 0.0967,0.1949299 0.2030898,0.2191099 0.22572,0.0518 0.44113,0.14233 0.63717,0.26562 0.0925,0.058 0.21111,0.0533 0.29869,-0.011901 l 0.3379596,-0.2501101 0.27544,0.2733702 -0.25012,0.3379599 c -0.0645,0.0872 -0.0692,0.2050198 -0.0119,0.2971401 0.122881,0.1966298 0.21243,0.4125698 0.26355,0.6387197 0.0242,0.10639 0.11118,0.1870401 0.21911,0.2030902 l 0.41806,0.0625 V 9.189535 l -0.41651,0.0625 c -0.10852,0.015499 -0.196269,0.0962 -0.22066,0.2030899 -0.0518,0.2258196 -0.14019,0.4405206 -0.26355,0.6366511 -0.058,0.0925 -0.0533,0.21112 0.0119,0.29869 l 0.25012,0.33797 -0.27544,0.27543 -0.3358996,-0.25011 c -0.0877,-0.0654 -0.2066,-0.0702 -0.2992,-0.0119 -0.19656,0.12271 -0.41269,0.21298 -0.63872,0.26407 -0.10624,0.0241 -0.1868498,0.11086 -0.20309,0.21859 l -0.0625,0.41806 h -0.38861 l -0.0605,-0.41806 c -0.016201,-0.10773 -0.0969,-0.19448 -0.2030899,-0.21859 -0.2256201,-0.0518 -0.4406699,-0.1409 -0.63665,-0.26407 -0.0925,-0.058 -0.21111,-0.0533 -0.29869,0.0119 l -0.3400297,0.25011 -0.2733701,-0.27543 0.2480501,-0.3359 c 0.0652,-0.0876 0.0699,-0.20621 0.011901,-0.29869 C 6.5960776,9.8972145 6.5080677,9.6812645 6.4569475,9.4551249 6.4328466,9.3488849 6.3460776,9.2682849 6.2383578,9.252035 l -0.41806,-0.0625 v -0.3886 l 0.4159899,-0.0625 c 0.1072901,-0.015999 0.19393,-0.0959 0.2186,-0.20154 0.0519,-0.2258301 0.1421601,-0.4426 0.2656099,-0.63872 0.0572,-0.0919 0.0528,-0.2093802 -0.011401,-0.2966202 L 6.4589869,7.2615252 6.7344269,6.988155 7.0703168,7.2362051 c 0.0876,0.0652 0.2062098,0.0699 0.2986899,0.011901 0.19656,-0.1227099 0.4106201,-0.21091 0.6366601,-0.262 0.1070401,-0.0234 0.18862,-0.1102799 0.2051499,-0.21859 z M 8.4666664,7.671846 c -0.7275399,0 -1.3239499,0.597 -1.3239499,1.32446 0,0.7274695 0.59641,1.321891 1.3239499,1.321891 0.72754,0 1.3224,-0.5944215 1.3224,-1.321891 0,-0.72746 -0.59486,-1.32446 -1.3224,-1.32446 z m 0,0.52916 c 0.44162,0 0.79323,0.35389 0.79323,0.7953 0,0.4414199 -0.35161,0.7927195 -0.79323,0.7927195 -0.44162,0 -0.79478,-0.3512996 -0.79478,-0.7927195 0,-0.44141 0.35316,-0.7953 0.79478,-0.7953 z m -7.1442697,3.441646 c -0.43515985,0 -0.79322985,0.35756 -0.79322985,0.79272 v 1.05885 c 0,0.20332 0.0806,0.38771 0.20826,0.52865 -0.12762,0.1414 -0.20826,0.32636 -0.20826,0.52968 v 1.05885 c 0,0.43517 0.35807,0.79272 0.79322985,0.79272 h 4.2343698 c 0.4351599,0 0.79272,-0.35755 0.79272,-0.79272 v -1.05884 c 0,-0.20332 -0.0801,-0.38829 -0.20774,-0.52969 0.1276101,-0.14094 0.20774,-0.32532 0.20774,-0.52864 v -1.05885 c 0,-0.43516 -0.3575601,-0.79272 -0.79272,-0.79272 z m 10.0546893,0 c -0.43516,0 -0.79324,0.35756 -0.79324,0.79272 v 1.05885 c 0,0.20332 0.0806,0.38771 0.20826,0.52865 -0.12762,0.1414 -0.20826,0.32636 -0.20826,0.52968 v 1.05885 c 0,0.43517 0.35807,0.79272 0.79324,0.79272 h 4.23436 c 0.43517,0 0.79272,-0.35755 0.79272,-0.79272 v -1.05884 c 0,-0.20332 -0.0801,-0.38829 -0.20774,-0.52969 0.12762,-0.14094 0.20774,-0.32532 0.20774,-0.52864 v -1.05885 c 0,-0.43516 -0.35756,-0.79272 -0.79272,-0.79272 z m -10.0546893,0.5271 h 1.32395 v 1.58802 h -1.32395 c -0.15115,0 -0.26355,-0.11239 -0.26355,-0.26355 v -1.05885 c 0,-0.15115 0.1124,-0.26562 0.26355,-0.26562 z m 1.85364,0 h 2.3807298 c 0.1511602,0 0.2635501,0.11447 0.2635501,0.26562 v 1.05885 c 0,0.15116 -0.1124,0.26355 -0.2635501,0.26355 H 3.1760367 Z m 8.2010493,0 h 1.32188 v 1.58802 h -1.32188 c -0.15116,0 -0.26355,-0.1124 -0.26355,-0.26355 v -1.05885 c 0,-0.15115 0.11239,-0.26562 0.26355,-0.26562 z m 1.85156,0 h 2.3828 c 0.15116,0 0.26355,0.11447 0.26355,0.26562 v 1.05885 c 0,0.15116 -0.11239,0.26355 -0.26355,0.26355 h -2.3828 z m -9.2598993,0.52917 c -0.1463198,5.82e-4 -0.2643999,0.11981 -0.2635498,0.26613 5.556e-4,0.14532 0.1182298,0.26299 0.2635498,0.26355 h 1.07022 c 0.1461299,5.82e-4 0.2650501,-0.11742 0.26562,-0.26355 8.731e-4,-0.14713 -0.1184799,-0.26671 -0.26562,-0.26613 z m 10.0546893,0 c -0.14714,-5.82e-4 -0.26648,0.119 -0.26562,0.26613 5.82e-4,0.14613 0.11949,0.26413 0.26562,0.26355 h 1.07022 c 0.14612,5.82e-4 0.26504,-0.11742 0.26561,-0.26355 8.73e-4,-0.14713 -0.11848,-0.26671 -0.26561,-0.26613 z m -12.1713492,0.001 c -0.14613,0 -0.26459,0.11846 -0.26459,0.26458 0,0.14613 0.11846,0.26459 0.26459,0.26459 0.14612,0 0.26458,-0.11846 0.26458,-0.26459 0,-0.14612 -0.11846,-0.26458 -0.26458,-0.26458 z m 9.7895792,0.264575 c 0,0.14613 0.11846,0.26459 0.26458,0.26459 0.14613,0 0.26459,-0.11846 0.26459,-0.26459 0,-0.14612 -0.11846,-0.26458 -0.26459,-0.264578 -0.14612,-2e-6 -0.26458,0.118458 -0.26458,0.264578 z m -8.9953192,1.322405 v 1.58806 h -1.32395 c -0.15115,0 -0.26355,-0.11239 -0.26355,-0.26355 v -1.05885 c 0,-0.15116 0.1124,-0.26562 0.26355,-0.26564 z m 0.52969,0 h 2.3807297 c 0.1511602,0 0.2635501,0.11446 0.2635501,0.26562 v 1.05885 c 0,0.15116 -0.1123899,0.26355 -0.2635501,0.26355 H 3.1760367 Z m 9.5229292,0 v 1.58806 h -1.32188 c -0.15116,0 -0.26355,-0.11239 -0.26355,-0.26355 v -1.05885 c 0,-0.15116 0.11239,-0.26562 0.26355,-0.26564 z m 0.52968,0 h 2.3828 c 0.15116,0 0.26355,0.11446 0.26355,0.26562 v 1.05885 c 0,0.15116 -0.11239,0.26355 -0.26355,0.26355 h -2.3828 z m -9.2598993,0.52917 c -0.1463198,5.82e-4 -0.2643999,0.11981 -0.2635498,0.26613 5.82e-4,0.14532 0.1182298,0.26299 0.2635498,0.26355 h 1.07022 c 0.1461299,5.82e-4 0.2650501,-0.11742 0.26562,-0.26355 8.731e-4,-0.14713 -0.1184799,-0.26671 -0.26562,-0.26613 z m 10.0546893,0 c -0.14714,-5.82e-4 -0.26648,0.119 -0.26562,0.26613 5.82e-4,0.14613 0.11949,0.26413 0.26562,0.26355 h 1.07022 c 0.14612,5.82e-4 0.26504,-0.11742 0.26561,-0.26355 8.73e-4,-0.14713 -0.11848,-0.26671 -0.26561,-0.26613 z m -12.1713492,5.29e-4 c -0.14613,0 -0.26459,0.11845 -0.26459,0.26458 0,0.14613 0.11846,0.26458 0.26459,0.26458 0.14612,0 0.26458,-0.11845 0.26458,-0.26458 0,-0.14613 -0.11846,-0.26458 -0.26458,-0.26458 z m 9.7895792,0.264571 c 0,0.14613 0.11846,0.26458 0.26458,0.26458 0.14613,0 0.26459,-0.11845 0.26459,-0.26458 0,-0.14613 -0.11846,-0.26458 -0.26459,-0.264576 -0.14612,-4e-6 -0.26458,0.118446 -0.26458,0.264576 z m -4.7588796,0.350379 c -0.0281,0.14341 0.0653,0.28248 0.20877,0.31057 0.4452501,0.0868 0.9049102,0.13074 1.3751101,0.13074 0.4702,0 0.92988,-0.0439 1.3751099,-0.13074 0.1434201,-0.0281 0.2368996,-0.16716 0.2087696,-0.31057 -0.0281,-0.14319 -0.1668196,-0.23659 -0.3100596,-0.20878 -0.4121,0.0804 -0.83772,0.12093 -1.27382,0.12093 -0.4361,0 -0.8612,-0.0405 -1.2733099,-0.12093 -0.0141,-0.003 -0.0285,-0.005 -0.042895,-0.0061 -0.129915,-0.0041 -0.2433649,0.0872 -0.2676751,0.21488 z"
       sodipodi:nodetypes="cccccccccccccccccccccccccccccccccccccccccccccccccccccccccccccccccccccccccccccccccccccccccccccccccccccccccccccccccccccccccccccccccccccccccccccccccccccccccccccccccccccccccccccccccccccccccccccccccccccccccccccccccccccccccccccccccccccccccccccccccccccccccccccccccccccccccccccccccccccccccccccccccccccccccccccccccccccccccccccccccccccccccccccccccccccccccccccccccccccccccccccccccccccccc"
       inkscape:export-filename="/home/wanzabuyumna/@WANZ_DESIGN/Export/Style Line/Icon 23/Icon 23.png"
       inkscape:export-xdpi="104"
       inkscape:export-ydpi="104" />
  </g>
</svg>
