<?xml version="1.0" standalone="no"?>
<!DOCTYPE svg PUBLIC "-//W3C//DTD SVG 20010904//EN"
 "http://www.w3.org/TR/2001/REC-SVG-20010904/DTD/svg10.dtd">
<svg version="1.0" xmlns="http://www.w3.org/2000/svg"
 width="1280.000000pt" height="551.000000pt" viewBox="0 0 1280.000000 551.000000"
 preserveAspectRatio="xMidYMid meet">

<g transform="translate(0.000000,551.000000) scale(0.100000,-0.100000)"
fill="#000000" stroke="none">
<path d="M0 2755 l0 -2755 6400 0 6400 0 -1 658 c-1 547 -3 649 -13 611 -26
-91 -97 -185 -177 -232 -184 -108 -424 -50 -531 128 l-33 54 -4885 1 c-2687 1
-4907 3 -4935 6 -188 16 -389 92 -550 206 -66 48 -195 171 -242 233 -50 66
-118 191 -149 273 l-33 87 -161 3 -162 3 6 -58 c19 -178 63 -313 154 -468 142
-242 361 -419 634 -511 57 -19 104 -34 106 -33 1 0 33 -4 70 -10 37 -6 87 -12
112 -14 l45 -2 0 -195 c0 -124 -4 -194 -10 -194 -5 1 -55 5 -110 9 -55 4 -106
8 -115 10 -8 1 -37 6 -65 9 -73 10 -106 16 -142 25 -47 13 -72 -5 -134 -98
-57 -84 -112 -141 -182 -188 -34 -24 -41 -25 -75 -15 -20 7 -52 21 -70 32
l-32 20 0 88 c0 88 15 158 58 268 17 47 18 55 5 80 -21 43 -105 104 -131 97
-12 -3 -22 -9 -22 -13 0 -5 -8 -11 -18 -14 -10 -4 -28 -15 -39 -25 -47 -45
-167 -100 -258 -121 -38 -9 -41 -7 -82 36 -24 25 -43 54 -43 66 0 35 50 158
84 208 30 44 39 55 84 108 36 43 37 65 5 124 -42 78 -63 87 -160 63 -73 -18
-262 -29 -305 -17 -14 3 -42 60 -61 122 -6 19 29 79 60 103 13 10 29 24 36 31
22 21 105 76 116 76 6 0 11 3 11 8 0 4 25 22 56 41 l56 34 -6 46 c-3 25 -8 55
-10 66 -3 11 -5 30 -5 42 -1 24 -15 28 -121 38 -117 11 -277 71 -298 112 -6
11 -10 580 -10 1395 l0 1377 74 73 75 74 -17 44 c-12 30 -18 77 -18 140 -1 87
2 101 30 161 33 69 104 148 159 177 17 8 53 23 80 33 l50 18 -277 1 -278 0 0
-2755z m3290 -1860 c45 -23 76 -94 42 -96 -9 0 -28 -2 -41 -3 -13 -2 -31 6
-42 17 -19 21 -64 26 -81 9 -20 -20 0 -40 54 -52 89 -21 108 -37 131 -111 7
-23 -18 -76 -47 -94 -38 -25 -128 -31 -180 -11 -46 18 -81 65 -75 101 6 31 66
28 101 -7 16 -15 34 -28 41 -28 33 1 57 14 57 31 0 20 -27 35 -82 44 -105 19
-145 109 -78 180 40 42 138 52 200 20z m1393 12 c3 2 26 -15 51 -40 30 -29 46
-52 46 -68 0 -23 -4 -25 -48 -26 -40 -1 -49 2 -57 20 -14 31 -58 44 -90 27
-59 -32 -50 -176 13 -192 25 -7 82 17 82 35 0 15 95 24 103 10 11 -20 -40 -89
-83 -111 -81 -40 -181 -18 -227 50 -29 43 -40 132 -23 184 18 52 70 101 117
109 21 4 43 8 48 9 6 2 22 0 37 -5 14 -4 29 -5 31 -2z m814 -8 c50 -31 55 -90
12 -142 -30 -37 -31 -39 -14 -57 24 -27 31 -25 38 8 5 25 10 28 44 27 26 0 38
-5 37 -15 -1 -28 -16 -85 -27 -98 -7 -9 -3 -20 16 -40 15 -16 27 -31 27 -34 0
-9 -84 -6 -97 4 -8 6 -26 5 -49 -2 -59 -20 -123 -7 -156 29 -41 46 -35 101 16
142 16 13 18 20 9 31 -20 23 -23 69 -8 105 23 54 99 75 152 42z m2176 2 c40
-13 81 -54 97 -96 13 -34 15 -112 5 -147 -34 -107 -175 -151 -274 -85 -48 32
-72 81 -72 152 -2 141 108 221 244 176z m2284 5 c38 -9 83 -58 83 -90 0 -18
-5 -21 -39 -21 -23 0 -47 8 -58 18 -23 20 -79 23 -86 4 -9 -23 6 -35 57 -47
101 -22 143 -67 131 -139 -18 -106 -237 -123 -290 -21 -26 51 -21 60 35 60 34
0 50 -4 50 -13 0 -33 87 -46 106 -15 11 17 -30 45 -77 52 -59 9 -97 35 -110
74 -33 100 64 167 198 138z m1590 -1 c67 -15 115 -88 116 -175 1 -70 -21 -120
-70 -157 -31 -24 -46 -28 -102 -28 -51 0 -74 5 -103 23 -73 45 -100 166 -56
251 42 83 111 110 215 86z m-8912 -11 c70 -33 87 -142 30 -192 l-26 -22 35
-65 c19 -35 32 -66 28 -68 -4 -2 -27 -3 -51 -3 -43 1 -45 2 -77 61 -47 84 -73
82 -68 -5 2 -34 -1 -50 -9 -51 -60 -5 -87 -4 -88 5 -3 30 -4 342 -1 349 6 14
192 8 227 -9z m372 -24 l0 -40 -84 0 -83 0 2 -30 c2 -29 4 -30 58 -31 97 -2
93 0 95 -41 l1 -38 -78 0 -77 0 1 -30 c1 -16 6 -30 12 -31 6 -1 43 -2 81 -3
l70 -1 0 -40 0 -40 -130 0 -130 0 -1 183 -1 182 132 0 132 0 0 -40z m648 10
c4 -46 -3 -50 -86 -50 l-79 0 0 -30 0 -30 74 0 74 0 4 -40 c4 -45 9 -43 -95
-40 l-58 1 3 -33 3 -33 73 -1 c39 -1 76 -2 80 -3 5 0 8 -18 7 -38 l-1 -38
-129 0 -130 0 -3 183 -3 183 132 -3 132 -3 2 -25z m295 27 c0 -2 24 -76 54
-164 73 -213 72 -198 9 -198 -49 -1 -53 1 -58 27 -8 36 -18 41 -78 43 -48 2
-50 0 -66 -35 -15 -34 -18 -36 -64 -35 -26 0 -48 4 -48 8 -1 4 25 86 57 182
l57 175 69 0 c37 0 68 -1 68 -3z m412 -35 c29 -29 33 -38 32 -88 0 -49 -4 -60
-28 -81 l-28 -23 36 -64 c20 -35 36 -66 36 -68 0 -2 -24 -3 -52 -3 l-53 0 -30
57 c-28 54 -59 79 -68 54 -2 -6 -3 -32 -2 -58 2 -52 -1 -55 -60 -54 l-40 1 0
170 c-1 94 1 176 3 184 4 10 29 12 113 9 107 -3 109 -4 141 -36z m568 -9 c-4
-99 -8 -93 65 -93 l65 0 0 70 0 70 50 0 50 0 0 -183 0 -183 -47 1 -48 0 -3 73
-3 72 -64 0 -65 0 0 -73 0 -72 -50 0 -50 0 0 183 0 182 51 0 50 0 -1 -47z
m1073 17 c88 -55 105 -202 34 -278 -40 -43 -75 -54 -179 -56 l-98 -2 -1 35
c-1 36 0 265 1 309 0 23 2 23 100 21 90 -1 104 -4 143 -29z m387 -10 l0 -40
-80 0 c-44 0 -80 -3 -81 -7 0 -5 -2 -18 -3 -30 -3 -26 -6 -25 85 -23 l67 1 0
-40 1 -41 -73 0 c-63 0 -74 -3 -79 -19 -9 -38 7 -47 87 -45 l76 1 0 -42 0 -41
-130 0 c-79 1 -130 5 -131 11 -1 14 -1 327 0 343 1 9 34 12 131 12 l130 0 0
-40z m174 -42 c14 -46 31 -105 39 -132 l14 -49 38 131 38 132 54 0 c29 0 53
-4 53 -9 0 -5 -15 -55 -34 -110 -19 -55 -31 -102 -28 -105 3 -3 0 -6 -6 -6 -7
0 -11 -3 -10 -7 4 -12 -33 -123 -40 -124 -4 -1 -35 -2 -69 -3 l-63 -2 -56 170
c-31 94 -59 177 -62 184 -3 9 11 12 52 12 l55 0 25 -82z m541 42 l0 -35 -82
-3 -83 -3 0 -29 c0 -33 3 -34 103 -30 l48 2 -3 -43 -3 -42 -72 2 -73 2 0 -30
c0 -34 -3 -33 103 -34 31 -1 58 -5 58 -9 1 -4 1 -17 1 -28 0 -48 4 -47 -129
-46 l-128 1 -3 183 -2 183 132 -3 132 -3 1 -35z m146 33 c0 -5 1 -69 2 -143
l2 -135 73 1 73 1 -3 -41 -3 -41 -120 0 -120 0 -1 175 c0 96 1 178 3 183 2 4
24 7 49 7 24 0 44 -3 45 -7z m830 -33 c23 -21 39 -47 40 -61 5 -100 -35 -147
-130 -153 -29 -2 -55 -6 -58 -10 -4 -3 -6 -28 -4 -54 l2 -47 -51 0 c-57 0 -51
-20 -51 155 0 50 0 117 1 150 l0 61 106 -2 106 -1 39 -38z m244 -62 c22 -54
42 -98 45 -98 3 0 23 44 45 98 l40 97 63 3 62 3 0 -38 c1 -59 1 -275 1 -304
-1 -25 -4 -26 -48 -25 l-48 1 0 103 c0 84 -2 99 -12 85 -7 -9 -13 -20 -13 -24
0 -4 -5 -20 -12 -36 -6 -15 -19 -48 -28 -72 -12 -33 -23 -47 -43 -52 -33 -9
-37 -5 -80 111 -20 52 -37 93 -37 90 -1 -3 -2 -50 -3 -105 l-2 -99 -47 -1 -48
-1 0 183 0 184 62 -3 63 -3 40 -97z m567 72 c3 -16 2 -34 -2 -39 -3 -6 -41
-11 -84 -13 l-79 -3 -1 -30 -1 -30 76 1 77 2 0 -39 1 -39 -75 0 -74 0 0 -33 0
-32 80 0 81 1 -3 -41 -3 -40 -127 0 -128 -1 -1 31 c0 50 -1 247 0 293 l1 42
129 0 129 0 4 -30z m159 -7 c105 -157 111 -163 109 -102 -1 24 -1 65 -1 92 l1
47 49 0 48 0 1 -183 0 -184 -26 3 c-15 1 -34 2 -43 3 -9 1 -45 42 -80 92 l-64
91 -5 -94 -5 -93 -45 0 -45 0 -2 183 -3 182 43 0 c39 0 46 -4 68 -37z m560 27
c1 -5 1 -19 1 -30 0 -11 0 -24 -1 -30 0 -5 -25 -10 -55 -10 l-53 0 1 -143 1
-143 -50 1 -50 0 0 143 0 142 -55 0 -56 0 2 38 c1 20 2 38 3 40 4 8 311 0 312
-8z m784 -30 l0 -35 -55 -5 -55 -5 0 -130 c1 -71 -1 -135 -2 -141 -2 -5 -25
-10 -51 -9 l-46 1 0 142 0 142 -53 0 c-29 0 -54 5 -54 10 -4 33 -5 56 -1 63 2
4 74 6 160 5 l156 -3 1 -35z m136 -22 c2 -215 3 -217 65 -218 44 0 54 29 54
165 l0 115 49 0 50 0 -1 -135 c0 -152 -10 -181 -77 -216 -46 -25 -140 -21
-178 7 -52 38 -62 73 -62 215 l0 129 50 0 49 0 1 -62z m512 32 c49 -33 69 -73
72 -139 4 -85 -26 -146 -90 -178 -36 -19 -224 -26 -226 -9 -4 33 -5 342 -1
350 3 4 51 6 107 4 88 -3 107 -7 138 -28z m222 -140 c0 -91 -1 -172 -3 -181
-3 -13 -14 -16 -50 -15 l-47 2 -1 174 c0 96 1 179 4 183 2 4 25 7 50 5 l46 -3
1 -165z"/>
<path d="M5421 826 c-14 -16 -4 -46 15 -46 20 0 36 34 22 48 -15 15 -23 15
-37 -2z"/>
<path d="M5396 661 c-9 -15 4 -39 24 -44 30 -8 40 6 20 31 -19 23 -35 28 -44
13z"/>
<path d="M7560 812 c-22 -17 -25 -29 -25 -80 0 -72 21 -102 71 -102 49 0 73
36 71 105 -3 61 -17 81 -63 91 -21 4 -37 0 -54 -14z"/>
<path d="M11447 818 c-23 -18 -35 -56 -32 -106 3 -54 28 -82 72 -82 56 0 85
50 72 125 -11 62 -69 95 -112 63z"/>
<path d="M2507 823 c-4 -7 -3 -32 2 -77 1 -6 72 0 77 7 12 16 12 48 -1 61 -17
16 -70 22 -78 9z"/>
<path d="M3861 749 c-7 -27 -11 -52 -8 -55 3 -3 18 -4 34 -2 l30 3 -15 53 c-8
28 -18 52 -21 52 -4 0 -13 -23 -20 -51z"/>
<path d="M4204 788 c2 -40 4 -43 32 -44 37 -1 64 21 58 49 -5 26 -21 37 -60
37 -31 0 -32 -1 -30 -42z"/>
<path d="M5859 801 c-1 -36 -1 -100 0 -138 1 -31 3 -33 39 -33 53 0 74 26 80
95 4 48 2 56 -21 77 -16 15 -38 24 -61 25 -32 1 -36 -2 -37 -26z"/>
<path d="M7929 825 c-1 -3 -1 -16 -1 -30 0 -60 2 -65 25 -65 36 0 66 26 62 56
-1 14 -9 30 -16 35 -15 9 -68 12 -70 4z"/>
<path d="M10897 821 c-2 -3 -3 -46 -3 -96 l1 -90 36 -3 c54 -5 83 24 85 84 2
54 -11 90 -35 100 -22 9 -81 13 -84 5z"/>
<path d="M713 5499 c106 -25 209 -109 262 -215 27 -54 30 -68 30 -164 0 -94
-3 -111 -27 -161 -82 -170 -264 -262 -441 -222 l-57 13 -38 -38 -39 -39 2
-1024 c1 -563 3 -1026 4 -1028 0 -2 17 18 37 45 37 49 106 110 134 116 8 2 18
8 22 13 4 6 8 353 8 773 l0 763 429 429 429 428 96 -95 c53 -52 96 -98 96
-101 0 -4 -173 -180 -385 -392 l-385 -385 0 -705 1 -705 48 -22 c63 -30 130
-98 170 -172 29 -56 35 -61 65 -61 l33 0 0 570 c1 314 -3 570 -7 570 -5 0 -33
22 -62 49 -157 144 -165 400 -17 552 74 77 162 118 261 123 280 14 486 -266
387 -528 -38 -103 -140 -203 -241 -235 -21 -7 -38 -18 -39 -24 -3 -42 1 -260
5 -264 2 -2 113 104 246 237 l241 242 -17 51 c-49 143 -12 301 95 406 161 159
403 152 562 -14 29 -30 96 -145 84 -145 -3 0 -1 -9 5 -21 15 -28 15 -144 0
-199 -13 -47 -40 -103 -52 -108 -5 -2 -8 -10 -8 -17 0 -22 -93 -97 -160 -129
-58 -27 -74 -30 -155 -30 -49 1 -102 6 -116 12 -25 10 -40 -4 -378 -342 l-351
-351 0 -340 c1 -330 3 -383 14 -435 3 -14 8 -34 10 -45 7 -30 31 -94 57 -150
101 -220 302 -388 546 -458 l78 -22 4920 -3 4920 -2 27 52 c59 113 162 186
288 205 194 30 374 -87 436 -282 10 -33 13 337 13 1998 l1 2037 -6062 -1
c-3540 -1 -6047 -5 -6025 -10z m5772 -2120 c252 -39 436 -182 511 -399 14 -40
28 -96 31 -124 l5 -52 -206 0 c-134 0 -206 4 -207 11 -4 53 -44 129 -86 164
-62 51 -188 68 -281 37 -49 -17 -116 -71 -143 -116 -56 -93 -77 -255 -55 -415
9 -64 54 -160 95 -204 87 -93 280 -107 385 -26 27 21 88 112 86 130 0 3 0 10
0 15 0 9 394 12 412 3 11 -5 -20 -119 -52 -190 -86 -190 -266 -321 -497 -359
-59 -10 -202 -11 -263 -2 -153 24 -283 89 -390 197 -112 113 -176 250 -198
426 -10 73 -8 271 3 315 3 14 8 34 10 45 36 195 179 385 355 472 76 38 156 64
230 76 48 7 195 5 255 -4z m4605 -3 c14 -4 35 -9 48 -12 47 -10 154 -57 210
-93 142 -93 240 -233 288 -416 27 -101 27 -370 0 -475 -41 -159 -124 -293
-236 -380 -25 -19 -47 -38 -50 -41 -8 -9 -136 -69 -157 -74 -10 -2 -34 -9 -53
-15 -78 -24 -238 -32 -345 -16 -313 46 -546 292 -590 621 -7 55 -7 230 1 285
6 49 30 147 43 183 5 12 10 27 11 32 2 6 14 27 26 47 13 21 24 41 24 44 0 10
69 94 108 132 85 82 181 133 314 167 77 19 113 23 213 20 66 -1 131 -6 145 -9z
m-8059 -271 c58 -143 111 -271 117 -285 6 -14 35 -85 66 -158 30 -74 57 -136
60 -139 10 -10 24 8 41 54 10 26 23 62 31 78 7 17 29 71 49 120 19 50 40 99
45 110 8 17 30 71 35 85 1 3 6 16 12 30 6 14 37 88 68 165 31 77 64 155 72
173 l15 32 253 0 252 0 0 -750 c0 -527 -4 -750 -11 -751 -6 -1 -95 -2 -198 -3
-164 -2 -188 0 -189 13 0 9 -1 206 -1 439 0 233 -4 420 -8 415 -7 -8 -24 -48
-95 -233 -20 -52 -41 -105 -46 -117 -5 -13 -13 -33 -18 -45 -5 -13 -26 -66
-46 -118 -20 -52 -40 -104 -44 -115 -5 -11 -28 -67 -50 -125 l-41 -105 -115 0
c-63 0 -119 5 -124 10 -8 8 -244 609 -314 798 -11 31 -24 57 -27 57 -4 0 -7
-197 -6 -438 l1 -438 -200 0 -200 1 -1 753 0 752 255 -2 255 -3 107 -260z
m2395 100 l1 -165 -339 0 -338 0 0 -130 0 -130 310 0 310 0 0 -165 0 -165
-310 0 -310 0 0 -128 0 -129 328 2 c180 0 332 0 337 -2 8 -3 12 -223 6 -314
-1 -15 -51 -16 -538 -15 l-538 1 -2 753 -1 752 542 0 542 0 0 -165z m2879
-217 c70 -211 128 -387 129 -393 2 -5 6 -17 9 -25 28 -73 227 -693 223 -698
-2 -4 -100 -7 -217 -7 l-212 0 -19 55 c-11 30 -21 62 -23 70 -1 8 -13 48 -25
88 l-22 72 -146 1 c-81 1 -193 2 -249 3 l-102 1 -42 -142 c-23 -79 -45 -144
-48 -144 -19 -5 -439 -4 -437 1 2 3 31 91 65 195 34 105 65 197 68 205 3 8 7
20 9 25 5 19 55 170 61 185 3 8 7 22 9 31 2 9 9 29 15 45 7 16 13 34 14 39 2
6 38 116 81 245 43 129 79 237 79 240 2 8 83 252 90 273 7 16 30 17 286 17
l278 0 126 -382z m1305 370 c154 -32 283 -115 350 -226 91 -149 88 -414 -5
-551 -26 -39 -124 -128 -152 -140 l-31 -13 34 -60 c19 -33 34 -62 34 -64 0 -2
13 -25 28 -51 16 -26 52 -93 82 -148 29 -55 70 -131 92 -168 21 -38 38 -70 38
-70 0 -8 -441 0 -448 8 -5 6 -29 48 -54 95 -78 146 -151 283 -179 335 l-27 50
-71 3 -71 3 -2 -248 -3 -247 -200 -1 -200 0 -2 753 -3 753 383 -4 c210 -2 393
-6 407 -9z"/>
<path d="M10928 3035 c-2 -2 -26 -5 -53 -8 -120 -12 -205 -100 -240 -249 -14
-61 -16 -275 -2 -323 28 -98 47 -132 99 -182 46 -44 101 -65 181 -69 214 -9
325 133 325 415 0 244 -83 377 -256 409 -28 5 -53 8 -54 7z"/>
<path d="M7890 2946 c0 -2 -31 -108 -70 -235 -38 -128 -70 -236 -70 -241 0 -5
69 -10 154 -12 l153 -3 -8 25 c-18 54 -139 459 -139 464 0 3 -4 6 -10 6 -5 0
-10 -2 -10 -4z"/>
<path d="M9242 3039 c-15 -6 -17 -25 -14 -184 l3 -177 122 4 c94 3 130 8 157
22 68 36 90 75 90 159 -1 83 -43 141 -120 165 -40 12 -213 20 -238 11z"/>
<path d="M546 5279 c-136 -66 -137 -254 -1 -318 98 -46 205 -4 241 96 19 54
17 90 -7 141 -42 85 -148 123 -233 81z"/>
<path d="M1324 4180 c-97 -48 -127 -166 -66 -254 70 -101 216 -105 289 -9 40
53 44 137 9 197 -46 79 -147 108 -232 66z"/>
<path d="M2255 4183 c-82 -43 -119 -132 -90 -217 69 -200 366 -130 342 81 -6
53 -47 110 -98 135 -43 21 -115 22 -154 1z"/>
<path d="M684 2596 c-32 -14 -96 -84 -88 -97 2 -4 0 -10 -5 -13 -14 -9 -6 -97
12 -131 64 -123 235 -130 310 -12 25 38 30 123 10 162 -20 40 -52 74 -85 91
-34 18 -113 17 -154 0z"/>
<path d="M12330 1531 c-19 -10 -48 -35 -65 -55 -25 -31 -30 -48 -32 -94 -2
-88 42 -154 119 -176 125 -38 242 53 232 180 -9 122 -149 202 -254 145z"/>
</g>
</svg>
