<?xml version="1.0" encoding="UTF-8" standalone="no"?> <svg width="512" height="512" viewBox="0 0 512 512" fill="none" xmlns="http://www.w3.org/2000/svg">
<path d="M80 224C84.4183 224 88 220.418 88 216C88 211.582 84.4183 208 80 208C75.5817 208 72 211.582 72 216C72 220.418 75.5817 224 80 224Z" fill="black"/>
<path d="M80 152C84.4183 152 88 148.418 88 144C88 139.582 84.4183 136 80 136C75.5817 136 72 139.582 72 144C72 148.418 75.5817 152 80 152Z" fill="black"/>
<path d="M80 88C84.4183 88 88 84.4183 88 80C88 75.5817 84.4183 72 80 72C75.5817 72 72 75.5817 72 80C72 84.4183 75.5817 88 80 88Z" fill="black"/>
<path d="M290.048 416H221.952L202.752 480H152V496H360V480H309.248L290.048 416Z" fill="black"/>
<path d="M80 312C84.4183 312 88 308.418 88 304C88 299.582 84.4183 296 80 296C75.5817 296 72 299.582 72 304C72 308.418 75.5817 312 80 312Z" fill="black"/>
<path d="M312 128C299.342 128 286.968 131.754 276.444 138.786C265.919 145.818 257.716 155.814 252.872 167.508C248.028 179.203 246.76 192.071 249.23 204.486C251.699 216.901 257.795 228.304 266.745 237.255C275.696 246.205 287.099 252.301 299.514 254.77C311.929 257.24 324.797 255.972 336.492 251.128C348.186 246.284 358.182 238.081 365.214 227.556C372.246 217.032 376 204.658 376 192C375.981 175.032 369.232 158.765 357.234 146.766C345.236 134.768 328.968 128.019 312 128V128ZM344 200H320V224H304V200H280V184H304V160H320V184H344V200Z" fill="black"/>
<path d="M370.829 246.143C366.755 250.567 362.198 254.52 357.244 257.93L432.686 333.372C433.519 334.205 434.508 334.866 435.596 335.317C436.684 335.768 437.851 336 439.029 336C440.207 336 441.373 335.768 442.462 335.317C443.55 334.866 444.539 334.206 445.372 333.373C446.205 332.54 446.866 331.551 447.317 330.462C447.768 329.374 448 328.208 448 327.03C448 325.852 447.768 324.685 447.317 323.597C446.866 322.508 446.205 321.52 445.373 320.687L370.829 246.143Z" fill="black"/>
<path d="M472 32H40C37.879 32.0024 35.8456 32.8461 34.3458 34.3458C32.8461 35.8456 32.0024 37.879 32 40V352H400V368H32V392C32.0024 394.121 32.8461 396.154 34.3458 397.654C35.8456 399.154 37.879 399.998 40 400H472C474.121 399.998 476.154 399.154 477.654 397.654C479.154 396.154 479.998 394.121 480 392V40C479.998 37.879 479.154 35.8456 477.654 34.3458C476.154 32.8461 474.121 32.0024 472 32V32ZM333.343 336H290.657L276.111 302.07L259.571 295.217L225.245 308.934L195.066 278.754L200.962 264H127.69C126.49 263.997 125.305 264.265 124.223 264.785C123.141 265.305 122.191 266.063 121.444 267.002L101.053 292.49C103.771 297.459 104.644 303.229 103.52 308.779C102.395 314.33 99.3449 319.304 94.9078 322.823C90.4707 326.343 84.9325 328.181 79.2716 328.012C73.6108 327.843 68.1917 325.679 63.972 321.902C59.7523 318.125 57.0035 312.978 56.2113 307.37C55.4192 301.762 56.6346 296.055 59.6429 291.257C62.6513 286.458 67.2588 282.878 72.6514 281.148C78.044 279.418 83.8746 279.649 89.1129 281.802L108.949 257.007C111.192 254.19 114.043 251.916 117.288 250.357C120.533 248.797 124.089 247.991 127.69 248H207.356L208.783 244.429L201.929 227.889L192 223.632V224H102.624C100.737 229.338 97.0232 233.836 92.1399 236.701C87.2566 239.566 81.5179 240.612 75.9379 239.654C70.3579 238.697 65.2961 235.798 61.6469 231.469C57.9978 227.141 55.9964 221.661 55.9964 216C55.9964 210.339 57.9978 204.859 61.6469 200.531C65.2961 196.202 70.3579 193.303 75.9379 192.346C81.5179 191.388 87.2566 192.434 92.1399 195.299C97.0232 198.164 100.737 202.662 102.624 208H168V170.657L184.339 163.653L175.03 154.344C174.289 153.598 173.407 153.007 172.436 152.605C171.465 152.203 170.424 151.997 169.373 152H102.624C100.737 157.338 97.0232 161.836 92.1399 164.701C87.2566 167.566 81.5179 168.612 75.9379 167.654C70.3579 166.697 65.2961 163.798 61.6469 159.469C57.9978 155.141 55.9964 149.661 55.9964 144C55.9964 138.339 57.9978 132.859 61.6469 128.531C65.2961 124.202 70.3579 121.303 75.9379 120.346C81.5179 119.388 87.2566 120.434 92.1399 123.299C97.0232 126.164 100.737 130.662 102.624 136H169.373C172.526 135.991 175.649 136.608 178.562 137.815C181.475 139.021 184.12 140.794 186.343 143.029L200.177 156.863L201.93 156.111L208.783 139.571L198.485 113.799L175.03 90.3438C174.289 89.5984 173.407 89.0074 172.436 88.6051C171.465 88.2028 170.424 87.9971 169.373 88H102.624C100.737 93.3377 97.0232 97.8364 92.1399 100.701C87.2566 103.566 81.5179 104.612 75.9379 103.654C70.3579 102.697 65.2961 99.7978 61.6469 95.4693C57.9978 91.1407 55.9964 85.6615 55.9964 80C55.9964 74.3385 57.9978 68.8593 61.6469 64.5307C65.2961 60.2022 70.3579 57.303 75.9379 56.3456C81.5179 55.3883 87.2566 56.4343 92.1399 59.2989C97.0232 62.1636 100.737 66.6623 102.624 72H169.373C172.526 71.9913 175.649 72.6081 178.562 73.8147C181.475 75.0213 184.12 76.7937 186.343 79.0293L203.814 96.4995L225.246 75.0664L259.571 88.7832L276.112 81.9297L290.657 48H333.343L347.889 81.9297L364.429 88.7832L398.755 75.0664L428.934 105.246L415.217 139.571L422.071 156.111L456 170.657V213.343L422.07 227.889L419.098 235.062L404.316 228.938L409.781 215.748L440 202.794V181.206L409.782 168.252L397.943 139.681L410.162 109.102L394.898 93.8379L364.319 106.057L335.749 94.2188L322.794 64H301.206L288.251 94.2188L259.681 106.057L229.103 93.8379L213.838 109.102L226.057 139.681L214.219 168.252L184 181.206V202.794L214.218 215.748L226.057 244.319L213.838 274.898L229.102 290.162L259.681 277.943L288.251 289.781L301.206 320H322.794L334.465 292.773L349.171 299.078L333.343 336ZM439.029 352C435.749 352.009 432.499 351.367 429.468 350.112C426.438 348.856 423.686 347.012 421.373 344.687L342.593 265.907C325.003 273.203 305.389 273.992 287.269 268.133C269.15 262.274 253.711 250.15 243.723 233.936C233.734 217.723 229.85 198.481 232.767 179.663C235.683 160.844 245.21 143.681 259.637 131.251C274.065 118.822 292.449 111.94 311.492 111.84C330.535 111.741 348.99 118.43 363.547 130.708C378.104 142.985 387.809 160.048 390.923 178.835C394.036 197.622 390.353 216.904 380.535 233.221L456.686 309.372C460.178 312.864 462.557 317.314 463.52 322.157C464.484 327.001 463.989 332.022 462.099 336.585C460.209 341.148 457.009 345.048 452.902 347.792C448.796 350.535 443.968 352 439.029 352V352Z" fill="black"/>
</svg>
