<?xml version="1.0" encoding="utf-8"?>
<!-- Generator: Adobe Adobe Illustrator 24.2.0, SVG Export Plug-In . SVG Version: 6.00 Build 0)  -->
<svg version="1.1" xmlns="http://www.w3.org/2000/svg" xmlns:xlink="http://www.w3.org/1999/xlink" x="0px" y="0px" width="1040px"
	 height="410px" viewBox="0 0 1040 410" style="enable-background:new 0 0 1040 410;" xml:space="preserve">
<style type="text/css">
	.st0{fill:#FF002F;stroke:#000000;stroke-miterlimit:10;stroke-opacity:0;}
	.st1{stroke:#050505;stroke-miterlimit:10;}
	.st2{fill:#FF000C;}
	.st3{font-family:'GillSans';}
	.st4{font-size:178px;}
	.st5{font-size:53.0774px;}
</style>
<g id="Layer_2">
	<path class="st0" d="M196.08,98.13l37.31,92.9c0,0,44.48-92.9,44.48-92.9s35.6,0,35.6,0s-83.6,195.77-83.6,195.77l-47.73-130.13
		l-35.92,120.16c0,0-37.96,0-37.96,0c0,0,55.8-185.8,55.8-185.8h33.66"/>
</g>
<g id="Layer_3">
	<g>
		<polygon class="st1" points="291.33,172.01 285.4,188.11 311.03,282.43 321.41,282.43 		"/>
		<path class="st1" d="M300.95,144.39l-5.36,17.79c0,0,29.14,95.84,36.56,120.24h9.9C334.64,257.54,300.95,144.39,300.95,144.39z"/>
		<path class="st1" d="M310.73,119.9l-4.62,15.41c0,0,38.12,121.3,46.23,147.12h10.03L310.73,119.9z"/>
	</g>
	<text transform="matrix(1 0 0 1 355.5107 219.7237)" class="st2 st3 st4">ECARO</text>
	<text transform="matrix(1 0 0 1 370.0566 282.3433)" class="st3 st5">Mechanics. Electronics. IT.</text>
</g>
</svg>
