<?xml version="1.0" encoding="utf-8"?>
<!-- Generator: Adobe Adobe Illustrator 24.2.0, SVG Export Plug-In . SVG Version: 6.00 Build 0)  -->
<svg version="1.1" xmlns="http://www.w3.org/2000/svg" xmlns:xlink="http://www.w3.org/1999/xlink" x="0px" y="0px" width="1060px"
	 height="450.6px" viewBox="0 0 1060 450.6" style="enable-background:new 0 0 1060 450.6;" xml:space="preserve">
<style type="text/css">
	.st0{fill:#FF002F;stroke:#000000;stroke-miterlimit:10;stroke-opacity:0;}
	.st1{stroke:#050505;stroke-miterlimit:10;}
	.st2{fill:#FF000C;stroke:#000000;stroke-miterlimit:10;stroke-opacity:0;}
	.st3{fill:#CCCCCC;stroke:#CCCCCC;stroke-miterlimit:10;}
	.st4{fill:#FF000C;}
	.st5{font-family:'GillSans';}
	.st6{font-size:178px;}
	.st7{fill:#CCCCCC;}
	.st8{font-size:42.6512px;}
</style>
<g id="Layer_2">
</g>
<g id="Layer_3">
	<path class="st2" d="M202.08,118.74l37.31,92.9c0,0,44.48-92.9,44.48-92.9h35.6c0,0-83.6,195.77-83.6,195.77l-47.73-130.13
		l-35.92,120.16c0,0-37.96,0-37.96,0c0,0,55.8-185.8,55.8-185.8h33.66"/>
	<g>
		<polygon class="st3" points="297.33,192.62 291.4,208.71 317.03,303.03 327.41,303.03 		"/>
		<path class="st3" d="M306.95,164.99l-5.36,17.79c0,0,29.14,95.84,36.56,120.24h9.9C340.64,278.14,306.95,164.99,306.95,164.99z"/>
		<path class="st3" d="M316.73,140.5l-4.62,15.41c0,0,38.12,121.3,46.23,147.12h10.03L316.73,140.5z"/>
	</g>
	<text transform="matrix(1 0 0 1 364.2294 240.3265)" class="st4 st5 st6">ECARO</text>
	<text transform="matrix(1 0 0 1 381.8555 302.3137)" class="st7 st5 st8">Research &amp; Development Studio</text>
</g>
</svg>
