<?xml version="1.0" encoding="utf-8"?>
<!-- Generator: Adobe Adobe Illustrator 24.2.0, SVG Export Plug-In . SVG Version: 6.00 Build 0)  -->
<svg version="1.1" xmlns="http://www.w3.org/2000/svg" xmlns:xlink="http://www.w3.org/1999/xlink" x="0px" y="0px" width="384px"
	 height="418px" viewBox="0 0 384 418" style="enable-background:new 0 0 384 418;" xml:space="preserve">
<style type="text/css">
	.st0{fill:#FF002F;stroke:#000000;stroke-miterlimit:10;stroke-opacity:0;}
	.st1{stroke:#050505;stroke-miterlimit:10;}
	.st2{fill:#FF000C;stroke:#000000;stroke-miterlimit:10;stroke-opacity:0;}
	.st3{fill:#CCCCCC;stroke:#CCCCCC;stroke-miterlimit:10;}
</style>
<g id="Layer_2">
</g>
<g id="Layer_3">
	<path class="st2" d="M152.77,86.13l37.31,92.9c0,0,44.48-92.9,44.48-92.9s35.6,0,35.6,0s-83.6,195.77-83.6,195.77l-47.73-130.13
		L102.9,271.94c0,0-37.96,0-37.96,0c0,0,55.8-185.8,55.8-185.8h33.66"/>
	<g>
		<polygon class="st3" points="248.01,160.01 242.09,176.11 267.72,270.43 278.1,270.43 		"/>
		<path class="st3" d="M257.64,132.39l-5.36,17.79c0,0,29.14,95.84,36.56,120.24h9.9C291.33,245.54,257.64,132.39,257.64,132.39z"/>
		<path class="st3" d="M267.42,107.9l-4.62,15.41c0,0,38.12,121.3,46.23,147.12h10.03L267.42,107.9z"/>
	</g>
</g>
</svg>
