<?xml version="1.0" encoding="UTF-8" standalone="no"?> <svg id="Layer_1" data-name="Layer 1" xmlns="http://www.w3.org/2000/svg" viewBox="0 0 64 64"><path d="M63,61c-7.26,0-10.878-4.669-14.709-9.613C44.333,46.281,40.24,41,32,41c-6.825,0-10.8,3.624-14.217,7.769.368.467.731.933,1.088,1.393l.174.224C22.312,46.355,25.849,43,32,43c7.26,0,10.878,4.669,14.709,9.613C50.667,57.719,54.76,63,63,63Z"/><path d="M15.217,55.231c-.368-.467-.731-.933-1.088-1.393l-.174-.224C10.687,57.645,7.151,61,1,61v2C7.825,63,11.8,59.376,15.217,55.231Z"/><path d="M7,57.436a13.835,13.835,0,0,0,2-1.454V45.487c2.589,1.82,4.62,4.429,6.709,7.126C19.667,57.719,23.76,63,32,63c6.825,0,10.8-3.624,14.217-7.769-.368-.467-.731-.933-1.088-1.393l-.174-.224A25.366,25.366,0,0,1,40,58.512V48.029a13.9,13.9,0,0,0-2-1.448V59.7a13.311,13.311,0,0,1-5,1.271V45.041c-.326-.024-.656-.041-1-.041s-.675.014-1,.036V60.959a13.31,13.31,0,0,1-5-1.267V46.564a13.835,13.835,0,0,0-2,1.454V58.513c-2.589-1.82-4.62-4.429-6.709-7.126C13.333,46.281,9.24,41,1,41v2a13.592,13.592,0,0,1,6,1.308Z"/><path d="M63,41c-6.825,0-10.8,3.624-14.217,7.769.368.467.731.933,1.088,1.393l.174.224A25.366,25.366,0,0,1,55,45.488V55.971a13.9,13.9,0,0,0,2,1.448V44.305A13.592,13.592,0,0,1,63,43Z"/><path d="M13.679,13.9a10.44,10.44,0,0,1,2.532-8.071,8.063,8.063,0,0,1,12.263,0l2.784,3.087a1.031,1.031,0,0,0,1.484,0l2.784-3.087a8.063,8.063,0,0,1,12.263,0A10.44,10.44,0,0,1,50.321,13.9l1.991.2a12.445,12.445,0,0,0-3.039-9.615A10.188,10.188,0,0,0,41.659,1h0a10.19,10.19,0,0,0-7.616,3.487L32,6.751,29.958,4.487a10.06,10.06,0,0,0-15.231,0A12.445,12.445,0,0,0,11.688,14.1Z"/><path d="M13.4,19.286A42.451,42.451,0,0,0,24.116,31.281L31.4,36.8a1,1,0,0,0,1.208,0l7.28-5.516a42.442,42.442,0,0,0,10.712-12A12.561,12.561,0,0,0,51.258,18H55V16H43.754L41.962,9.725a1,1,0,0,0-1.94.066L37.657,20.829,33.91,12.586a1,1,0,0,0-1.858.1l-2.169,6.5-1.964-4.582a1,1,0,0,0-1.814-.053L24,18.764,22.9,16.553A1,1,0,0,0,22,16H9v2h3.743A12.277,12.277,0,0,0,13.4,19.286ZM21.382,18l1.723,3.447a1.042,1.042,0,0,0,1.79,0l2.036-4.072,2.15,5.019a.981.981,0,0,0,.961.605,1,1,0,0,0,.906-.683l2.2-6.584,3.946,8.682A1,1,0,0,0,38,25a.973.973,0,0,0,.107-.006,1,1,0,0,0,.871-.785l2.161-10.084.9,3.15A1,1,0,0,0,43,18h6.02c-.047.083-.088.171-.137.252A40.449,40.449,0,0,1,38.677,29.687L32,34.746l-6.677-5.059A40.459,40.459,0,0,1,15.117,18.253c-.049-.082-.09-.169-.137-.253Z"/><rect x="11" y="26" width="2" height="2"/><rect x="18" y="33" width="2" height="2"/><rect x="15" y="40" width="2" height="2"/><rect x="47" y="40" width="2" height="2"/><rect x="42" y="35" width="2" height="2"/><rect x="51" y="29" width="2" height="2"/></svg>