<svg width="2287" height="989" viewBox="0 0 2287 989" fill="none" xmlns="http://www.w3.org/2000/svg">
<g clip-path="url(#clip0_505_1402)">
<path d="M240 128C240 31.3502 318.35 -47 415 -47H2338C2434.65 -47 2513 31.3502 2513 128V567C2513 663.65 2434.65 742 2338 742H415C318.35 742 240 663.65 240 567V128Z" stroke="white" stroke-width="50"/>
</g>
<rect x="366.922" y="818.206" width="896.969" height="70.2793" fill="white"/>
<path d="M430.344 382.909H521.267L583.81 535.324H586.963L649.506 382.909H740.429V652H668.952V496.432H666.849L606.935 649.898H563.838L503.923 495.381H501.821V652H430.344V382.909Z" fill="white"/>
<path d="M775.051 652V382.909H968.985V441.773H848.105V488.023H959V546.886H848.105V593.136H968.46V652H775.051Z" fill="white"/>
<path d="M1256.44 483.818H1182.33C1181.81 477.686 1180.41 472.124 1178.13 467.131C1175.94 462.138 1172.87 457.846 1168.93 454.255C1165.08 450.576 1160.39 447.773 1154.87 445.846C1149.35 443.831 1143.09 442.824 1136.08 442.824C1123.82 442.824 1113.44 445.802 1104.94 451.758C1096.53 457.715 1090.14 466.255 1085.76 477.38C1081.47 488.504 1079.32 501.863 1079.32 517.454C1079.32 533.922 1081.51 547.718 1085.89 558.843C1090.36 569.88 1096.8 578.201 1105.21 583.807C1113.62 589.326 1123.73 592.085 1135.56 592.085C1142.3 592.085 1148.35 591.253 1153.69 589.589C1159.03 587.837 1163.68 585.34 1167.62 582.099C1171.56 578.858 1174.76 574.96 1177.21 570.405C1179.75 565.763 1181.46 560.551 1182.33 554.77L1256.44 555.295C1255.56 566.683 1252.37 578.289 1246.85 590.114C1241.33 601.852 1233.49 612.714 1223.33 622.699C1213.25 632.598 1200.77 640.569 1185.88 646.613C1170.99 652.657 1153.69 655.679 1133.98 655.679C1109.28 655.679 1087.12 650.379 1067.5 639.78C1047.96 629.181 1032.5 613.59 1021.12 593.005C1009.82 572.42 1004.17 547.237 1004.17 517.454C1004.17 487.497 1009.95 462.27 1021.51 441.773C1033.07 421.188 1048.66 405.64 1068.28 395.128C1087.91 384.529 1109.8 379.23 1133.98 379.23C1150.97 379.23 1166.61 381.551 1180.89 386.194C1195.17 390.836 1207.69 397.625 1218.47 406.56C1229.24 415.407 1237.91 426.312 1244.48 439.276C1251.05 452.24 1255.04 467.087 1256.44 483.818Z" fill="white"/>
<path d="M1351.17 652H1272.34L1361.16 382.909H1461.02L1549.84 652H1471L1412.14 457.014H1410.04L1351.17 652ZM1336.46 545.835H1484.67V600.494H1336.46V545.835Z" fill="white"/>
<path d="M1575.75 652V382.909H1691.9C1711.88 382.909 1729.35 386.544 1744.33 393.814C1759.31 401.085 1770.96 411.552 1779.28 425.217C1787.6 438.882 1791.76 455.262 1791.76 474.358C1791.76 493.629 1787.47 509.877 1778.89 523.104C1770.39 536.331 1758.43 546.317 1743.02 553.062C1727.69 559.806 1709.77 563.179 1689.28 563.179H1619.9V506.417H1674.56C1683.14 506.417 1690.46 505.366 1696.5 503.264C1702.63 501.074 1707.32 497.614 1710.56 492.884C1713.89 488.154 1715.56 481.979 1715.56 474.358C1715.56 466.649 1713.89 460.386 1710.56 455.569C1707.32 450.663 1702.63 447.072 1696.5 444.795C1690.46 442.43 1683.14 441.247 1674.56 441.247H1648.81V652H1575.75ZM1733.42 528.491L1800.7 652H1721.34L1655.64 528.491H1733.42Z" fill="white"/>
<path d="M2083.58 517.454C2083.58 547.412 2077.76 572.683 2066.11 593.268C2054.46 613.765 2038.74 629.313 2018.94 639.912C1999.14 650.423 1977.07 655.679 1952.72 655.679C1928.19 655.679 1906.03 650.379 1886.23 639.78C1866.52 629.094 1850.85 613.502 1839.19 593.005C1827.63 572.42 1821.85 547.237 1821.85 517.454C1821.85 487.497 1827.63 462.27 1839.19 441.773C1850.85 421.188 1866.52 405.64 1886.23 395.128C1906.03 384.529 1928.19 379.23 1952.72 379.23C1977.07 379.23 1999.14 384.529 2018.94 395.128C2038.74 405.64 2054.46 421.188 2066.11 441.773C2077.76 462.27 2083.58 487.497 2083.58 517.454ZM2008.43 517.454C2008.43 501.337 2006.28 487.76 2001.99 476.723C1997.79 465.598 1991.52 457.189 1983.2 451.496C1974.97 445.714 1964.81 442.824 1952.72 442.824C1940.63 442.824 1930.42 445.714 1922.1 451.496C1913.87 457.189 1907.61 465.598 1903.31 476.723C1899.11 487.76 1897.01 501.337 1897.01 517.454C1897.01 533.572 1899.11 547.193 1903.31 558.317C1907.61 569.354 1913.87 577.763 1922.1 583.545C1930.42 589.238 1940.63 592.085 1952.72 592.085C1964.81 592.085 1974.97 589.238 1983.2 583.545C1991.52 577.763 1997.79 569.354 2001.99 558.317C2006.28 547.193 2008.43 533.572 2008.43 517.454Z" fill="white"/>
<path fill-rule="evenodd" clip-rule="evenodd" d="M2217 810C2255.66 810 2287 778.66 2287 740C2287 701.34 2255.66 670 2217 670C2178.34 670 2147 701.34 2147 740C2147 778.66 2178.34 810 2217 810ZM2216.98 772.001C2234.66 772.001 2248.98 757.674 2248.98 740.001C2248.98 722.328 2234.66 708.001 2216.98 708.001C2199.31 708.001 2184.98 722.328 2184.98 740.001C2184.98 757.674 2199.31 772.001 2216.98 772.001Z" fill="white"/>
<g clip-path="url(#clip1_505_1402)">
<path fill-rule="evenodd" clip-rule="evenodd" d="M80.8296 532.331C73.4077 529.412 49.9244 509.287 43.6814 500.495C41.6879 497.687 41.8037 497.134 46.734 485.986C51.4504 475.324 52.1647 474.307 55.6609 473.28C69.049 469.346 85.4114 469.514 103.189 473.767C130.074 480.197 130.412 480.217 133.867 475.571C136.671 471.8 140.862 464.266 144.752 456.002C146.191 452.944 145.734 451.642 140.696 444.47C137.572 440.025 131.881 432.663 128.048 428.111C122.737 421.801 119.367 415.716 113.87 402.507C109.366 391.683 107.304 386.9 108.352 382.938C109.222 379.644 112.242 376.919 117.792 371.762C125.743 364.376 127.619 364.321 147.254 370.913C159.805 375.127 161.422 376.006 176.665 386.91C190.403 396.736 193.174 398.323 195.344 397.612C200.988 395.762 216.62 383.569 218.078 379.88C219.778 375.575 218.398 368.275 213.488 355.619C209.875 346.3 206.742 323.382 207.315 310.438L207.644 302.974L216.009 298.445C231.45 290.085 231.853 290.022 239.027 294.832C250.297 302.388 259.408 311.899 269.081 326.2C278.997 340.863 281.729 345.058 285.294 345.961C286.841 346.353 288.544 346.125 291.06 345.863C294.878 345.465 301.494 343.896 305.764 342.376L313.526 339.612L314.591 332.669C315.175 328.85 316.177 319.104 316.816 311.01C317.91 297.149 318.37 295.301 324.748 279.152L331.52 262.009L335.668 261.009C341.82 259.528 352.915 259.342 356.279 260.665C359.975 262.118 368.649 275.329 372.707 285.682C374.4 289.999 377.345 300.274 379.252 308.515C382.443 322.304 383.73 328.234 387.407 331.116C390.288 333.375 394.637 333.761 402.521 334.592C409.114 335.286 412.679 335.682 415.252 334.27C418.325 332.585 419.984 328.322 423.701 318.912C429.787 303.506 437.826 290.706 449.539 277.775C457.4 269.098 458.824 268.785 472.073 272.822L483.44 276.287L485.194 281.562C487.635 288.905 489.147 310.728 487.803 319.197C486.383 328.147 484.423 347.375 484.437 352.204C484.451 356.505 487.346 359.154 499.347 365.843C503.097 367.933 505.348 369.331 507.611 369.351C511.598 369.386 515.623 365.145 527.949 352.883C541.146 339.757 543.019 338.378 557.502 331.137C572.792 323.49 573.023 323.429 578.152 325.557C581.005 326.742 586.022 330.25 589.298 333.352C596.302 339.983 596.487 342.132 591.681 360.928C589.17 370.75 587.317 375.136 579.535 389.669C574.484 399.102 569.764 407.727 569.045 408.837C568.326 409.948 568.484 412.572 569.397 414.667C571.512 419.524 583.672 433.167 587.081 434.507C588.825 435.193 594.476 433.261 604.357 428.599C619.693 421.364 636.578 416.851 653.367 415.498C657.999 415.124 660.66 414.898 662.802 415.844C665.732 417.138 667.693 420.626 672.406 428.932L677.395 437.726L674.006 444.03C667.596 455.952 661.379 463.1 643.297 479.34L625.171 495.617L626.233 502.416C626.818 506.154 628.783 512.808 630.602 517.202L633.907 525.191L644.604 525.422C650.487 525.549 660.718 525.607 667.338 525.552C678.548 525.457 686.906 526.865 704.35 531.785C712.627 534.12 713.82 536.05 715.073 549.153C715.997 558.826 715.307 560.9 709.435 566.098C697.958 576.258 689.664 580.758 666.895 589.184C657.33 592.723 648.559 596.617 647.403 597.838C645.763 599.57 645.496 602.65 646.193 611.848C646.848 620.505 647.115 624.678 649.277 627.274C651.352 629.767 655.173 630.806 662.76 632.966C669.833 634.979 679.09 638.351 683.328 640.458C691.875 644.708 713.034 660.39 714.487 663.552C715.643 666.067 711.451 686.95 709.248 689.652C707.4 691.92 688.005 697.973 680.524 698.618C677.78 698.854 667.059 698.618 656.698 698.091C646.338 697.564 636.999 697.289 635.944 697.478C631.584 698.262 620.812 723.655 623.11 727.731C623.599 728.598 630.659 735.77 638.799 743.672C646.939 751.573 654.771 759.734 656.204 761.81C662.938 771.566 671.402 787.254 670.791 788.848C669.083 793.299 659.029 806.31 656.285 807.616C652.988 809.186 640.097 808.411 627.682 805.893C623.414 805.028 611.408 800.825 601.003 796.554C585.255 790.088 581.656 788.97 579.542 789.887C576.448 791.228 564.878 804.684 563.23 808.857C561.979 812.022 563.285 815.296 576.827 842.968C580.929 851.351 584.136 860.078 584.724 864.46C585.268 868.519 586.176 874.952 586.741 878.755L587.768 885.671L581.228 890.643C577.63 893.378 572.384 896.891 569.569 898.45L564.452 901.283L555.632 896.938C543.827 891.121 532.839 883.025 523.469 873.234C512.338 861.607 505.186 855.679 502.693 856.017C499.92 856.392 478.652 867.509 478.107 868.867C477.877 869.443 478.8 880.286 480.157 892.964L482.626 916.014L478.471 932.522L474.316 949.03L469.952 950.145C467.55 950.758 462.595 952.076 458.938 953.073C455.345 954.052 451.049 954.328 449.287 953.702C457.261 922.52 458.543 892.588 434.073 892.588C430.541 892.588 421.097 892.18 408.509 891.434C407.202 889.475 405.99 888.347 404.556 887.801C402.137 886.881 399.087 887.618 393.893 888.816C391.84 889.289 389.429 889.727 387.242 890.044C352.83 887.594 309.36 883.561 289.79 878.761C283.808 876.547 282.357 876.579 279.762 877.845C273.818 880.744 269.648 885.271 264.605 894.301C261.932 899.086 257.85 905.32 255.536 908.155C247.901 917.504 231.019 931.354 224.955 933.243C221.369 934.36 202.206 926.594 200.846 923.473C199.388 920.122 199.125 901.465 200.384 890.645C201.157 884.014 203.092 877.423 207.673 865.827C213.884 850.101 213.901 850.018 211.904 845.431C210.574 842.376 206.892 838.441 200.967 833.744C196.055 829.849 191.494 826.449 190.831 826.189C189.305 825.589 179.545 831.798 168.654 840.299C159.719 847.273 150.326 851.635 132.718 856.985C124.067 859.612 121.358 859.898 119.188 858.408C114.097 854.917 104.416 843.525 104.079 840.627C103.884 838.964 106.335 831.213 109.858 822.352C115.787 807.436 116.353 806.494 128.362 791.524C135.174 783.031 140.985 775.484 141.274 774.753C141.815 773.383 137.548 763.543 132.826 755.27C128.162 747.099 118.484 745.293 105.666 750.205C96.856 753.58 81.8719 754.926 63.7062 753.974L49.4509 753.226L44.8062 741.355C40.2678 729.757 40.223 729.373 42.8337 724.699C48.3439 714.837 59.3107 705.443 80.4389 692.485C91.7084 685.573 101.199 679.236 101.528 678.402C101.858 677.568 100.905 670.261 99.4112 662.163L96.6955 647.441L92.282 646.519C89.8545 646.013 80.5761 644.881 71.6624 644.004C55.5324 642.418 55.3805 642.378 39.7156 635.24C25.7416 628.873 23.8025 627.669 22.4245 624.505C20.6798 620.497 20.5666 606.916 22.2438 602.67C23.6328 599.154 37.1633 590.799 47.9957 586.77C52.548 585.076 63.9398 582.464 73.3112 580.966C88.4607 578.544 93.7289 578.034 96.2657 575.134C97.9387 573.222 98.4237 570.27 99.7715 565.045C103.194 551.778 103.331 548.759 100.677 545.078C98.3366 541.834 87.8191 535.079 80.8296 532.331ZM576.599 601.938C582.296 715.557 494.807 812.281 381.189 817.977C267.571 823.673 170.847 736.185 165.151 622.567C159.454 508.948 246.943 412.225 360.561 406.528C474.179 400.832 570.903 488.32 576.599 601.938Z" fill="white"/>
</g>
<path fill-rule="evenodd" clip-rule="evenodd" d="M110 140C148.66 140 180 108.66 180 70C180 31.3401 148.66 0 110 0C71.3401 0 40 31.3401 40 70C40 81.6037 42.8234 92.5479 47.8206 102.183L21.0039 129H21V516V529V614.076H106.774C107 614.176 107.226 614.274 107.453 614.372L100.852 643.21H242.997V529H201.795C195.167 507.895 178.812 491.098 157.984 483.861V231.715L296.98 92.7186L261.625 57.3633L107.989 210.999L107.99 211H107.984V485.404C93.4487 491.49 81.4025 502.339 73.7972 516H71V149.715L85.2252 135.489C92.9269 138.404 101.277 140 110 140ZM416 336C407.176 336 398.732 334.367 390.956 331.387L256.81 465.533L221.455 430.178L353.694 297.939C348.776 288.363 346 277.506 346 266C346 227.34 377.34 196 416 196C454.66 196 486 227.34 486 266C486 304.66 454.66 336 416 336ZM250 336C288.66 336 320 304.66 320 266C320 227.34 288.66 196 250 196C211.34 196 180 227.34 180 266C180 304.66 211.34 336 250 336ZM141.984 70.001C141.984 87.6741 127.657 102.001 109.984 102.001C92.3113 102.001 77.9844 87.6741 77.9844 70.001C77.9844 52.3279 92.3113 38.001 109.984 38.001C127.657 38.001 141.984 52.3279 141.984 70.001ZM447.984 266.001C447.984 283.674 433.658 298.001 415.984 298.001C398.311 298.001 383.984 283.674 383.984 266.001C383.984 248.328 398.311 234.001 415.984 234.001C433.658 234.001 447.984 248.328 447.984 266.001ZM249.984 298.001C267.657 298.001 281.984 283.674 281.984 266.001C281.984 248.328 267.657 234.001 249.984 234.001C232.311 234.001 217.984 248.328 217.984 266.001C217.984 283.674 232.311 298.001 249.984 298.001ZM167 550C167 567.673 152.673 582 135 582C117.327 582 103 567.673 103 550C103 532.327 117.327 518 135 518C152.673 518 167 532.327 167 550Z" fill="white"/>
<defs>
<clipPath id="clip0_505_1402">
<rect width="2042" height="453" fill="white" transform="translate(122 314)"/>
</clipPath>
<clipPath id="clip1_505_1402">
<rect width="368.256" height="376" fill="white" transform="translate(0 612.356)"/>
</clipPath>
</defs>
</svg>
