<?xml version="1.0" encoding="UTF-8" standalone="no"?> <svg width="64" height="64" viewBox="0 0 64 64" fill="none" xmlns="http://www.w3.org/2000/svg">
<path d="M48 48V46C48 45.7348 47.8946 45.4804 47.7071 45.2929C47.5196 45.1054 47.2652 45 47 45H45C44.7348 45 44.4804 45.1054 44.2929 45.2929C44.1054 45.4804 44 45.7348 44 46V48L46 50L48 48Z" fill="black"/>
<path d="M49 53H51C51.2652 53 51.5196 52.8946 51.7071 52.7071C51.8946 52.5196 52 52.2652 52 52V50C52 49.7348 51.8946 49.4804 51.7071 49.2929C51.5196 49.1054 51.2652 49 51 49H49L47 51L49 53Z" fill="black"/>
<path d="M44 54V56C44 56.2652 44.1054 56.5196 44.2929 56.7071C44.4804 56.8946 44.7348 57 45 57H47C47.2652 57 47.5196 56.8946 47.7071 56.7071C47.8946 56.5196 48 56.2652 48 56V54L46 52L44 54Z" fill="black"/>
<path d="M41 53H43L45 51L43 49H41C40.7348 49 40.4804 49.1054 40.2929 49.2929C40.1054 49.4804 40 49.7348 40 50V52C40 52.2652 40.1054 52.5196 40.2929 52.7071C40.4804 52.8946 40.7348 53 41 53Z" fill="black"/>
<path d="M16.5 44.5V49H12V52H16.5V56.5H19.5V52H24V49H19.5V44.5H16.5Z" fill="black"/>
<path d="M61 29V10C61 4.15 46.06 1 32 1C17.94 1 3 4.15 3 10V29C3 33.35 11 35.59 15.81 36.54C15.9563 36.5683 16.107 36.5636 16.2512 36.5262C16.3954 36.4888 16.5295 36.4197 16.6435 36.3238C16.7576 36.228 16.8488 36.1079 16.9104 35.9722C16.9721 35.8366 17.0027 35.689 17 35.54V23.27C21.9516 22.396 26.972 21.971 32 22C37.028 21.971 42.0484 22.396 47 23.27V35.56C47 35.8252 47.1054 36.0796 47.2929 36.2671C47.4804 36.4546 47.7348 36.56 48 36.56H48.19C53 35.59 61 33.35 61 29ZM5 13.48C7.48 15.48 11.77 16.68 15 17.38V34.38H14.88L14.39 34.26L13.61 34L13.11 33.86L12.43 33.68L11.94 33.53L11.35 33.34L10.88 33.19L10.35 33L9.92 32.84L9.43 32.65L9 32.49L8.57 32.29L8.22 32.12C8.09 32.06 7.96 32 7.84 31.93L7.52 31.76L7.19 31.57L7 31.4L6.72 31.2L6.43 31L6.18 30.8L6 30.68C5.93 30.61 5.86 30.55 5.8 30.48L5.64 30.32C5.58127 30.2578 5.52776 30.1909 5.48 30.12L5.35 30L5.23 29.79L5.16 29.66C5.12481 29.5901 5.09796 29.5162 5.08 29.44C5.08 29.44 5.08 29.37 5.08 29.33C5.03641 29.2248 5.00943 29.1135 5 29V13.48ZM32 20C26.9734 19.9742 21.9542 20.3891 17 21.24V16.56C17.0043 16.3246 16.9254 16.0953 16.7772 15.9124C16.6291 15.7295 16.4211 15.6047 16.19 15.56C8.46 14 5 11.67 5 10C5 6.7 16.55 3 32 3C47.45 3 59 6.7 59 10C59 11.67 55.54 14 47.81 15.58C47.5789 15.6247 47.3709 15.7495 47.2228 15.9324C47.0746 16.1153 46.9957 16.3446 47 16.58V21.26C42.0464 20.4024 37.0272 19.9808 32 20V20ZM49 34.33V17.38C52.24 16.68 56.52 15.45 59 13.47V29C59 30.58 55.9 32.79 49 34.33Z" fill="black"/>
<path d="M29 9H31V7H28C27.7348 7 27.4804 7.10536 27.2929 7.29289C27.1054 7.48043 27 7.73478 27 8V11H29V9Z" fill="black"/>
<path d="M29 13H27V16C27 16.2652 27.1054 16.5196 27.2929 16.7071C27.4804 16.8946 27.7348 17 28 17H31V15H29V13Z" fill="black"/>
<path d="M36 7H33V9H35V11H37V8C37 7.73478 36.8946 7.48043 36.7071 7.29289C36.5196 7.10536 36.2652 7 36 7Z" fill="black"/>
<path d="M35 15H33V17H36C36.2652 17 36.5196 16.8946 36.7071 16.7071C36.8946 16.5196 37 16.2652 37 16V13H35V15Z" fill="black"/>
<path d="M32 13C32.5523 13 33 12.5523 33 12C33 11.4477 32.5523 11 32 11C31.4477 11 31 11.4477 31 12C31 12.5523 31.4477 13 32 13Z" fill="black"/>
<path d="M19.0004 32V39H18.0004C15.8938 38.9996 13.8243 39.5537 11.9998 40.6067C10.1753 41.6596 8.66014 43.1743 7.60661 44.9985C6.55307 46.8227 5.9983 48.892 5.99805 50.9986C5.99779 53.1051 6.55207 55.1746 7.60517 56.999C8.65826 58.8234 10.1731 60.3385 11.9973 61.3919C13.8215 62.4453 15.8909 62.9999 17.9975 63C20.104 63.0001 22.1735 62.4457 23.9978 61.3924C25.8221 60.3392 27.3371 58.8243 28.3904 57H35.6104C36.6636 58.8243 38.1786 60.3392 40.0029 61.3924C41.8272 62.4457 43.8967 63.0001 46.0032 63C48.1098 62.9999 50.1792 62.4453 52.0034 61.3919C53.8276 60.3385 55.3424 58.8234 56.3955 56.999C57.4486 55.1746 58.0029 53.1051 58.0027 50.9986C58.0024 48.892 57.4476 46.8227 56.3941 44.9985C55.3406 43.1743 53.8254 41.6596 52.0009 40.6067C50.1764 39.5537 48.1069 38.9996 46.0004 39H45.0004V32H43.0004V39H41.0004V35H39.0004V39H33.0004V35H31.0004V39H25.0004V35H23.0004V39H21.0004V32H19.0004ZM56.0004 51C56.0003 53.2462 55.2441 55.4269 53.8535 57.1909C52.4629 58.9549 50.519 60.1993 48.3349 60.7237C46.1507 61.248 43.8537 61.0218 41.8138 60.0814C39.774 59.1411 38.1101 57.5413 37.0904 55.54C37.0059 55.377 36.8781 55.2403 36.7212 55.1451C36.5642 55.0498 36.384 54.9996 36.2004 55H27.8004C27.6167 54.9996 27.4365 55.0498 27.2795 55.1451C27.1226 55.2403 26.9948 55.377 26.9104 55.54C26.1033 57.1238 24.8887 58.4639 23.3916 59.4222C21.8945 60.3806 20.169 60.9225 18.3928 60.9923C16.6167 61.0621 14.854 60.6571 13.2863 59.8192C11.7186 58.9812 10.4027 57.7406 9.4739 56.2249C8.54514 54.7093 8.03715 52.9735 8.00226 51.1963C7.96737 49.4191 8.40683 47.6647 9.27539 46.1138C10.144 44.5628 11.4102 43.2715 12.9438 42.3726C14.4774 41.4738 16.2228 41 18.0004 41H46.0004C48.6525 41 51.1961 42.0536 53.0714 43.9289C54.9468 45.8043 56.0004 48.3478 56.0004 51V51Z" fill="black"/>
<path d="M29 30H27V37H29V30Z" fill="black"/>
<path d="M37 30H35V37H37V30Z" fill="black"/>
</svg>
